
<svg width="24px" height="24px" viewBox="0 0 24 24" version="1.1" xmlns="http://www.w3.org/2000/svg" xmlns:xlink="http://www.w3.org/1999/xlink">
    <!-- Generator: Sketch 46.2 (44496) - http://www.bohemiancoding.com/sketch -->
    <desc>Created with Sketch.</desc>
    <defs></defs>
    <g id="Page-1" stroke="none" stroke-width="1" fill="none" fill-rule="evenodd">
        <g id="Docs-Index" transform="translate(-586.000000, -678.000000)" fill="#73C86B">
            <g id="Categories" transform="translate(250.000000, 504.000000)">
                <g id="LDS" transform="translate(320.000000, 2.000000)">
                    <g id="Topic" transform="translate(0.000000, 156.000000)">
                        <g id="location-pin-direction-3" transform="translate(16.000000, 16.000000)">
                            <g id="Outline_Icons">
                                <g id="Group">
                                    <path d="M5.5,0 C2.81,0 0.621,2.188 0.621,4.879 C0.621,7.405 4.656,12.312 5.116,12.862 C5.189,12.949 5.291,12.997 5.401,13.02 C5.174,13.067 5,13.259 5,13.5 L5,14.5 C5,14.776 5.224,15 5.5,15 C5.776,15 6,14.776 6,14.5 L6,13.5 C6,13.259 5.826,13.067 5.599,13.02 C5.708,12.997 5.811,12.95 5.884,12.862 C6.344,12.311 10.379,7.405 10.379,4.879 C10.379,2.188 8.19,0 5.5,0 L5.5,0 Z M5.5,11.75 C4.143,10.047 1.621,6.54 1.621,4.879 C1.621,2.74 3.361,1 5.5,1 C7.639,1 9.379,2.74 9.379,4.879 C9.379,6.539 6.857,10.046 5.5,11.75 L5.5,11.75 Z" id="Shape"></path>
                                    <path d="M5.5,2.737 C4.319,2.737 3.358,3.698 3.358,4.879 C3.358,6.06 4.319,7.021 5.5,7.021 C6.682,7.021 7.643,6.06 7.643,4.879 C7.643,3.698 6.682,2.737 5.5,2.737 L5.5,2.737 Z M5.5,6.021 C4.871,6.021 4.358,5.509 4.358,4.879 C4.358,4.249 4.87,3.737 5.5,3.737 C6.13,3.737 6.643,4.249 6.643,4.879 C6.643,5.508 6.13,6.021 5.5,6.021 L5.5,6.021 Z" id="Shape"></path>
                                    <path d="M18.5,11 C15.81,11 13.621,13.188 13.621,15.879 C13.621,18.405 17.656,23.312 18.116,23.862 C18.211,23.976 18.351,24.042 18.5,24.042 C18.649,24.042 18.789,23.976 18.884,23.862 C19.344,23.311 23.379,18.405 23.379,15.879 C23.379,13.188 21.19,11 18.5,11 L18.5,11 Z M18.5,22.75 C17.143,21.047 14.621,17.54 14.621,15.879 C14.621,13.74 16.361,12 18.5,12 C20.639,12 22.379,13.74 22.379,15.879 C22.379,17.539 19.857,21.046 18.5,22.75 L18.5,22.75 Z" id="Shape"></path>
                                    <path d="M18.5,13.737 C17.319,13.737 16.358,14.698 16.358,15.879 C16.358,17.06 17.319,18.021 18.5,18.021 C19.682,18.021 20.643,17.06 20.643,15.879 C20.643,14.698 19.682,13.737 18.5,13.737 L18.5,13.737 Z M18.5,17.021 C17.871,17.021 17.358,16.509 17.358,15.879 C17.358,15.249 17.87,14.737 18.5,14.737 C19.13,14.737 19.643,15.249 19.643,15.879 C19.643,16.508 19.13,17.021 18.5,17.021 L18.5,17.021 Z" id="Shape"></path>
                                    <path d="M6.5,23 L6,23 L6,22.5 C6,22.224 5.776,22 5.5,22 C5.224,22 5,22.224 5,22.5 L5,23.5 C5,23.776 5.224,24 5.5,24 L6.5,24 C6.776,24 7,23.776 7,23.5 C7,23.224 6.776,23 6.5,23 L6.5,23 Z" id="Shape"></path>
                                    <path d="M15.5,23 L14.5,23 C14.224,23 14,23.224 14,23.5 C14,23.776 14.224,24 14.5,24 L15.5,24 C15.776,24 16,23.776 16,23.5 C16,23.224 15.776,23 15.5,23 L15.5,23 Z" id="Shape"></path>
                                    <path d="M12.5,23 L11.5,23 C11.224,23 11,23.224 11,23.5 C11,23.776 11.224,24 11.5,24 L12.5,24 C12.776,24 13,23.776 13,23.5 C13,23.224 12.776,23 12.5,23 L12.5,23 Z" id="Shape"></path>
                                    <path d="M9.5,23 L8.5,23 C8.224,23 8,23.224 8,23.5 C8,23.776 8.224,24 8.5,24 L9.5,24 C9.776,24 10,23.776 10,23.5 C10,23.224 9.776,23 9.5,23 L9.5,23 Z" id="Shape"></path>
                                    <path d="M5.5,18 C5.776,18 6,17.776 6,17.5 L6,16.5 C6,16.224 5.776,16 5.5,16 C5.224,16 5,16.224 5,16.5 L5,17.5 C5,17.776 5.224,18 5.5,18 L5.5,18 Z" id="Shape"></path>
                                    <path d="M5,20.5 C5,20.776 5.224,21 5.5,21 C5.776,21 6,20.776 6,20.5 L6,19.5 C6,19.224 5.776,19 5.5,19 C5.224,19 5,19.224 5,19.5 L5,20.5 L5,20.5 Z" id="Shape"></path>
                                </g>
                            </g>
                        </g>
                    </g>
                </g>
            </g>
        </g>
    </g>
</svg>