
<svg width="24px" height="24px" viewBox="0 0 24 24" version="1.1" xmlns="http://www.w3.org/2000/svg" xmlns:xlink="http://www.w3.org/1999/xlink">
    <!-- Generator: Sketch 46.2 (44496) - http://www.bohemiancoding.com/sketch -->
    <desc>Created with Sketch.</desc>
    <defs></defs>
    <g id="Page-1" stroke="none" stroke-width="1" fill="none" fill-rule="evenodd">
        <g id="Docs-Index" transform="translate(-906.000000, -678.000000)" fill="#73C86B">
            <g id="Categories" transform="translate(250.000000, 504.000000)">
                <g id="Builder" transform="translate(640.000000, 2.000000)">
                    <g id="Topic" transform="translate(0.000000, 156.000000)">
                        <g id="Group" transform="translate(16.000000, 16.000000)">
                            <path d="M23.5,0 L3.5,0 C3.224,0 3,0.224 3,0.5 L3,4 L0.5,4 C0.224,4 0,4.224 0,4.5 L0,23.5 C0,23.776 0.224,24 0.5,24 L19.5,24 C19.776,24 20,23.776 20,23.5 L20,21 L23.5,21 C23.776,21 24,20.776 24,20.5 L24,0.5 C24,0.224 23.776,0 23.5,0 L23.5,0 Z M4,1 L23,1 L23,16 L21.346,16 L18.468,8.324 C18.403,8.149 18.243,8.025 18.058,8.003 C17.867,7.978 17.689,8.067 17.584,8.222 L13.955,13.665 L11.884,11.179 C11.78,11.055 11.619,10.986 11.462,11.001 C11.3,11.014 11.154,11.104 11.071,11.242 L8.217,16 L4,16 L4,1 L4,1 Z M20.279,16 L9.383,16 L11.567,12.361 L13.617,14.82 C13.718,14.941 13.869,15.002 14.027,14.999 C14.185,14.99 14.329,14.908 14.417,14.777 L17.876,9.589 L20.279,16 L20.279,16 Z M19,23 L1,23 L1,5 L3,5 L3,20.5 C3,20.776 3.224,21 3.5,21 L19,21 L19,23 L19,23 Z M4,20 L4,17 L23,17 L23,20 L4,20 L4,20 Z" id="Shape"></path>
                            <path d="M10,8 C11.103,8 12,7.103 12,6 C12,4.897 11.103,4 10,4 C8.897,4 8,4.897 8,6 C8,7.103 8.897,8 10,8 L10,8 Z M10,5 C10.552,5 11,5.449 11,6 C11,6.551 10.552,7 10,7 C9.448,7 9,6.551 9,6 C9,5.449 9.448,5 10,5 L10,5 Z" id="Shape"></path>
                        </g>
                    </g>
                </g>
            </g>
        </g>
    </g>
</svg>