
<svg width="24px" height="24px" viewBox="0 0 24 24" version="1.1" xmlns="http://www.w3.org/2000/svg" xmlns:xlink="http://www.w3.org/1999/xlink">
    <!-- Generator: Sketch 46.2 (44496) - http://www.bohemiancoding.com/sketch -->
    <desc>Created with Sketch.</desc>
    <defs></defs>
    <g id="Page-1" stroke="none" stroke-width="1" fill="none" fill-rule="evenodd">
        <g id="Docs-Index" transform="translate(-266.000000, -680.000000)" fill="#73C86B">
            <g id="Categories" transform="translate(250.000000, 504.000000)">
                <g id="Engine">
                    <g id="Topic" transform="translate(0.000000, 160.000000)">
                        <g id="computer-chip-64-bit" transform="translate(16.000000, 16.000000)">
                            <g id="Outline_Icons">
                                <g id="Group">
                                    <path d="M23.5,12 C23.776,12 24,11.776 24,11.5 C24,11.224 23.776,11 23.5,11 L20,11 L20,8 L23.5,8 C23.776,8 24,7.776 24,7.5 C24,7.224 23.776,7 23.5,7 L20,7 L20,5.5 C20,4.673 19.327,4 18.5,4 L17,4 L17,0.5 C17,0.224 16.776,0 16.5,0 C16.224,0 16,0.224 16,0.5 L16,4 L12,4 L12,0.5 C12,0.224 11.776,0 11.5,0 C11.224,0 11,0.224 11,0.5 L11,4 L8,4 L8,0.5 C8,0.224 7.776,0 7.5,0 C7.224,0 7,0.224 7,0.5 L7,4 L5.5,4 C4.673,4 4,4.673 4,5.5 L4,7 L0.5,7 C0.224,7 0,7.224 0,7.5 C0,7.776 0.224,8 0.5,8 L4,8 L4,12 L0.5,12 C0.224,12 0,12.224 0,12.5 C0,12.776 0.224,13 0.5,13 L4,13 L4,16 L0.5,16 C0.224,16 0,16.224 0,16.5 C0,16.776 0.224,17 0.5,17 L4,17 L4,18.5 C4,19.327 4.673,20 5.5,20 L7,20 L7,23.5 C7,23.776 7.224,24 7.5,24 C7.776,24 8,23.776 8,23.5 L8,20 L12,20 L12,23.5 C12,23.776 12.224,24 12.5,24 C12.776,24 13,23.776 13,23.5 L13,20 L16,20 L16,23.5 C16,23.776 16.224,24 16.5,24 C16.776,24 17,23.776 17,23.5 L17,20 L18.5,20 C19.327,20 20,19.327 20,18.5 L20,17 L23.5,17 C23.776,17 24,16.776 24,16.5 C24,16.224 23.776,16 23.5,16 L20,16 L20,12 L23.5,12 L23.5,12 Z M19,18.5 C19,18.775 18.776,19 18.5,19 L5.5,19 C5.224,19 5,18.775 5,18.5 L5,5.5 C5,5.225 5.224,5 5.5,5 L18.5,5 C18.776,5 19,5.225 19,5.5 L19,18.5 L19,18.5 Z" id="Shape"></path>
                                    <path d="M15.5,6 L8.5,6 C7.122,6 6,7.121 6,8.5 L6,15.5 C6,16.879 7.122,18 8.5,18 L15.5,18 C16.878,18 18,16.879 18,15.5 L18,8.5 C18,7.121 16.878,6 15.5,6 L15.5,6 Z M17,15.5 C17,16.327 16.327,17 15.5,17 L8.5,17 C7.673,17 7,16.327 7,15.5 L7,8.5 C7,7.673 7.673,7 8.5,7 L15.5,7 C16.327,7 17,7.673 17,8.5 L17,15.5 L17,15.5 Z" id="Shape"></path>
                                    <path d="M15.186,12.109 L15.186,10.084 C15.186,9.865 15.044,9.672 14.835,9.606 C14.627,9.544 14.399,9.62 14.275,9.798 L12.546,12.288 C12.44,12.44 12.427,12.64 12.514,12.805 C12.6,12.97 12.771,13.074 12.957,13.074 L14.186,13.074 L14.186,14 C14.186,14.276 14.41,14.5 14.686,14.5 C14.962,14.5 15.186,14.276 15.186,14 L15.186,13.039 C15.37,12.965 15.5,12.785 15.5,12.574 C15.5,12.363 15.37,12.184 15.186,12.109 L15.186,12.109 Z" id="Shape"></path>
                                    <path d="M10.5,11.188 C10.334,11.188 10.183,11.215 10.04,11.256 C10.143,10.869 10.399,10.541 10.987,10.541 C11.263,10.541 11.487,10.317 11.487,10.041 C11.487,9.765 11.263,9.541 10.987,9.541 C9.504,9.541 8.978,10.731 8.978,11.75 L8.978,12.842 C8.978,13.849 9.575,14.5 10.499,14.5 C11.423,14.5 12.02,13.849 12.02,12.842 C12.021,11.837 11.424,11.188 10.5,11.188 L10.5,11.188 Z M10.5,13.5 C10.357,13.5 9.979,13.5 9.979,12.842 C9.979,12.188 10.358,12.188 10.5,12.188 C10.642,12.188 11.021,12.188 11.021,12.842 C11.021,13.5 10.643,13.5 10.5,13.5 L10.5,13.5 Z" id="Shape"></path>
                                </g>
                            </g>
                        </g>
                    </g>
                </g>
            </g>
        </g>
    </g>
</svg>