
<svg width="14px" height="24px" viewBox="0 0 14 24" version="1.1" xmlns="http://www.w3.org/2000/svg" xmlns:xlink="http://www.w3.org/1999/xlink">
    <!-- Generator: Sketch 46.2 (44496) - http://www.bohemiancoding.com/sketch -->
    <desc>Created with Sketch.</desc>
    <defs></defs>
    <g id="Page-1" stroke="none" stroke-width="1" fill="none" fill-rule="evenodd">
        <g id="Docs---Topic" transform="translate(-521.000000, -2120.000000)" fill="#73C86B">
            <g id="Module-Next-Steps" transform="translate(488.000000, 1980.000000)">
                <g id="Topic" transform="translate(0.000000, 121.000000)">
                    <g id="mobile-phone-location" transform="translate(33.000000, 19.000000)">
                        <path d="M11.5,0 L2.5,0 C1.122,0 0,1.121 0,2.5 L0,21.5 C0,22.879 1.122,24 2.5,24 L11.5,24 C12.878,24 14,22.879 14,21.5 L14,2.5 C14,1.121 12.878,0 11.5,0 L11.5,0 Z M1,5 L13,5 L13,19 L1,19 L1,5 L1,5 Z M2.5,1 L11.5,1 C12.327,1 13,1.673 13,2.5 L13,4 L1,4 L1,2.5 C1,1.673 1.673,1 2.5,1 L2.5,1 Z M11.5,23 L2.5,23 C1.673,23 1,22.327 1,21.5 L1,20 L13,20 L13,21.5 C13,22.327 12.327,23 11.5,23 L11.5,23 Z" id="Shape"></path>
                        <path d="M4.5,3 L9.5,3 C9.776,3 10,2.776 10,2.5 C10,2.224 9.776,2 9.5,2 L4.5,2 C4.224,2 4,2.224 4,2.5 C4,2.776 4.224,3 4.5,3 L4.5,3 Z" id="Shape"></path>
                        <circle id="Oval" cx="7" cy="21.5" r="1"></circle>
                    </g>
                </g>
            </g>
        </g>
    </g>
</svg>