
<svg width="11px" height="12px" viewBox="0 0 11 12" version="1.1" xmlns="http://www.w3.org/2000/svg" xmlns:xlink="http://www.w3.org/1999/xlink">
    <!-- Generator: Sketch 46.2 (44496) - http://www.bohemiancoding.com/sketch -->
    <desc>Created with Sketch.</desc>
    <defs></defs>
    <g id="Page-1" stroke="none" stroke-width="1" fill="none" fill-rule="evenodd">
        <g id="Docs---Topic" transform="translate(-250.000000, -585.000000)" fill="#647083">
            <g id="Sidebar" transform="translate(248.000000, 148.000000)">
                <g id="Home" transform="translate(2.000000, 431.000000)">
                    <g id="globe-1" transform="translate(0.000000, 6.000000)">
                        <g id="Outline_Icons">
                            <g id="Group">
                                <path d="M4.7595,8.75 C7.103,8.75 9.0095,6.8435 9.0095,4.5 C9.0095,2.1565 7.103,0.25 4.7595,0.25 C2.416,0.25 0.5095,2.1565 0.5095,4.5 C0.5095,6.8435 2.416,8.75 4.7595,8.75 L4.7595,8.75 Z M4.75,1.25 C6.54226667,1.25 8,2.70773333 8,4.5 C8,6.29226667 6.54226667,7.75 4.75,7.75 C2.95773333,7.75 1.5,6.29226667 1.5,4.5 C1.5,2.70773333 2.95773333,1.25 4.75,1.25 L4.75,1.25 Z" id="Shape"></path>
                                <path d="M8.825,8.566 C9.911,7.48 10.509,6.036 10.509,4.5 C10.509,3.048 9.9685,1.6825 8.993,0.6195 L9.1785,0.434 C9.276,0.3365 9.276,0.178 9.1785,0.0805 C9.081,-0.017 8.9225,-0.017 8.825,0.0805 L8.118,0.7875 C8.0205,0.885 8.0205,1.0435 8.118,1.141 C8.167,1.19 8.231,1.214 8.295,1.214 C8.359,1.214 8.423,1.1895 8.472,1.141 L8.64,0.973 C9.521,1.941 10.009,3.1815 10.009,4.5 C10.009,5.9025 9.463,7.221 8.4715,8.2125 C7.48,9.204 6.1615,9.75 4.7595,9.75 C3.441,9.75 2.201,9.262 1.2325,8.3805 L1.4005,8.2125 C1.498,8.115 1.498,7.9565 1.4005,7.859 C1.303,7.7615 1.1445,7.7615 1.047,7.859 L0.6945,8.2115 C0.6945,8.2115 0.694,8.212 0.6935,8.212 C0.693,8.212 0.693,8.2125 0.693,8.213 L0.34,8.5655 C0.2425,8.663 0.2425,8.8215 0.34,8.919 C0.389,8.968 0.453,8.992 0.517,8.992 C0.581,8.992 0.645,8.9675 0.694,8.919 L0.8795,8.7335 C1.819,9.5965 2.9955,10.117 4.26,10.225 L4.26,10.526 C3.305,10.6165 2.4,10.964 1.619,11.55 C1.533,11.6145 1.4975,11.727 1.5315,11.829 C1.565,11.931 1.6605,12 1.768,12 L7.75,12 C7.8575,12 7.953,11.931 7.9875,11.829 C8.0215,11.7265 7.9865,11.6145 7.9,11.55 C7.119,10.9645 6.214,10.6165 5.2595,10.526 L5.2595,10.225 C6.606,10.11 7.858,9.533 8.825,8.566 L8.825,8.566 Z M2.644,11.5 C3.952,10.8425 5.566,10.8425 6.8745,11.5 L2.644,11.5 L2.644,11.5 Z" id="Shape"></path>
                            </g>
                        </g>
                    </g>
                </g>
            </g>
        </g>
    </g>
</svg>