
<svg width="29px" height="30px" viewBox="0 0 29 30" version="1.1" xmlns="http://www.w3.org/2000/svg" xmlns:xlink="http://www.w3.org/1999/xlink">
    <!-- Generator: Sketch 46.2 (44496) - http://www.bohemiancoding.com/sketch -->
    <desc>Created with Sketch.</desc>
    <defs></defs>
    <g id="Symbols" stroke="none" stroke-width="1" fill="none" fill-rule="evenodd">
        <g id="Nav-/-positive" transform="translate(-248.000000, -19.000000)" fill="#162945">
            <g id="Group-2" transform="translate(248.000000, 19.000000)">
                <path d="M12.702832,29.9130859 C19.7184124,29.9130859 25.4056641,24.4343176 25.4056641,17.6759144 C25.4056641,10.9175112 19.7184124,5.4387429 12.702832,5.4387429 C5.68725162,5.4387429 0,10.9175112 0,17.6759144 C0,24.4343176 5.68725162,29.9130859 12.702832,29.9130859 L12.702832,29.9130859 Z M22.2299561,17.6759144 C22.2299561,12.607112 17.9645173,8.49803578 12.702832,8.49803578 C7.44114672,8.49803578 3.17570801,12.607112 3.17570801,17.6759144 C3.17570801,22.7447168 7.44114672,26.8537931 12.702832,26.8537931 C17.9645173,26.8537931 22.2299561,22.7447168 22.2299561,17.6759144 Z" id="Oval-3"></path>
                <path d="M24.3470947,7.47827148 C26.4907443,7.47827148 28.2285156,5.80420339 28.2285156,3.73913574 C28.2285156,1.67406809 26.4907443,0 24.3470947,0 C22.2034452,0 20.4656738,1.67406809 20.4656738,3.73913574 C20.4656738,5.80420339 22.2034452,7.47827148 24.3470947,7.47827148 L24.3470947,7.47827148 Z M27.2581604,3.73913574 C27.2581604,2.19033501 25.9548319,0.934783936 24.3470947,0.934783936 C22.7393575,0.934783936 21.4360291,2.19033501 21.4360291,3.73913574 C21.4360291,5.28793648 22.7393575,6.54348755 24.3470947,6.54348755 C25.9548319,6.54348755 27.2581604,5.28793648 27.2581604,3.73913574 Z" id="Oval-3-Copy"></path>
            </g>
        </g>
    </g>
</svg>